<?xml version="1.0" standalone="no"?>
<!DOCTYPE svg PUBLIC "-//W3C//DTD SVG 20010904//EN"
 "http://www.w3.org/TR/2001/REC-SVG-20010904/DTD/svg10.dtd">
<svg version="1.0" xmlns="http://www.w3.org/2000/svg"
 width="2000.000000pt" height="1500.000000pt" viewBox="0 0 2000.000000 1500.000000"
 preserveAspectRatio="xMidYMid meet">

<g transform="translate(0.000000,1500.000000) scale(0.100000,-0.100000)"
fill="#000000" stroke="none">
<path d="M0 7500 l0 -7500 10000 0 10000 0 0 7500 0 7500 -10000 0 -10000 0 0
-7500z m10585 4990 c885 -64 1581 -284 2210 -697 463 -304 847 -680 1208
-1179 l37 -52 -462 -443 c-655 -628 -598 -576 -608 -559 -27 49 -186 266 -277
381 -117 146 -394 430 -513 526 -345 277 -687 450 -1114 563 -531 141 -1266
159 -1786 44 -256 -57 -508 -161 -700 -289 -341 -226 -535 -568 -557 -980 -18
-340 95 -636 336 -876 177 -177 404 -299 774 -413 198 -62 181 -58 2077 -481
646 -144 915 -220 1250 -352 423 -167 743 -364 985 -607 333 -334 536 -745
610 -1236 23 -151 31 -529 16 -698 -51 -541 -248 -1020 -583 -1417 -611 -723
-1577 -1137 -2838 -1216 -240 -15 -869 -6 -1080 15 -650 66 -1153 192 -1703
427 -699 299 -1308 754 -1756 1314 -106 132 -191 249 -191 262 0 18 1080 1087
1088 1078 5 -6 47 -68 95 -140 337 -509 825 -948 1350 -1212 566 -284 1217
-418 1937 -400 749 20 1295 179 1650 481 281 239 425 583 407 971 -13 277
-126 538 -316 726 -170 169 -439 306 -801 408 -80 22 -680 162 -1334 311
-1301 296 -1312 298 -1535 365 -444 133 -878 341 -1175 565 -433 325 -716 743
-840 1239 -130 520 -85 1121 120 1626 239 585 683 1071 1299 1420 543 309
1156 479 1900 528 124 8 694 6 820 -3z"/>
</g>
</svg>
